<svg width="12" height="12" viewBox="0 0 12 12" fill="none" xmlns="http://www.w3.org/2000/svg">
<path d="M10.9109 4.24995C10.8292 4.24411 10.7242 4.23828 10.6076 4.23828C10.3801 4.23828 10.1992 4.41912 10.1992 4.64662V7.35911C10.1992 7.58661 10.3801 7.76745 10.6076 7.76745C10.7242 7.76745 10.8234 7.76161 10.9226 7.75578C11.8326 7.65078 11.8326 7.00911 11.8326 6.54245V5.45745C11.8326 4.99078 11.8326 4.34911 10.9109 4.24995Z" fill="#41D61C"/>
<path d="M6.54185 1.79395H3.28685C0.895182 1.79395 0.166016 2.52311 0.166016 4.91478V7.08478C0.166016 9.47644 0.895182 10.2056 3.28685 10.2056H6.54185C8.93352 10.2056 9.66268 9.47644 9.66268 7.08478V4.91478C9.66268 2.52311 8.93352 1.79395 6.54185 1.79395ZM3.14102 7.27145C3.09435 7.46978 2.91352 7.60395 2.71518 7.60395C2.68018 7.60395 2.64518 7.59811 2.61018 7.59228C2.37685 7.53395 2.23102 7.29478 2.28935 7.06144C2.46435 6.36728 2.46435 5.63228 2.28935 4.93811C2.23102 4.70478 2.37102 4.46561 2.61018 4.40728C2.84935 4.34895 3.08268 4.49478 3.14102 4.72811C3.35102 5.56228 3.35102 6.43728 3.14102 7.27145ZM5.18268 7.27145C5.13602 7.46978 4.95518 7.60395 4.75685 7.60395C4.72185 7.60395 4.68685 7.59811 4.65185 7.59228C4.41852 7.53395 4.27268 7.29478 4.33102 7.06144C4.50602 6.36728 4.50602 5.63228 4.33102 4.93811C4.27268 4.70478 4.41268 4.46561 4.65185 4.40728C4.88518 4.34895 5.12435 4.48895 5.18268 4.72811C5.39268 5.56228 5.39268 6.43728 5.18268 7.27145ZM7.22435 7.27145C7.17768 7.46978 6.99685 7.60395 6.79852 7.60395C6.76352 7.60395 6.72852 7.59811 6.69352 7.59228C6.46018 7.53395 6.31435 7.29478 6.37268 7.06144C6.54768 6.36728 6.54768 5.63228 6.37268 4.93811C6.31435 4.70478 6.45435 4.46561 6.69352 4.40728C6.92685 4.34895 7.16602 4.48895 7.22435 4.72811C7.43435 5.56228 7.43435 6.43728 7.22435 7.27145Z" fill="#41D61C"/>
</svg>
