<svg width="24.000000" height="18.000000" viewBox="0 0 24 18" fill="none" xmlns="http://www.w3.org/2000/svg" xmlns:xlink="http://www.w3.org/1999/xlink">
	<desc>
			Created with Pixso.
	</desc>
	<defs>
		<clipPath id="clip48_10415">
			<rect id="BYD_Company-Logo.wine 1" width="24.000000" height="18.000000" fill="white" fill-opacity="0"/>
		</clipPath>
	</defs>
	<rect id="BYD_Company-Logo.wine 1" width="24.000000" height="18.000000" fill="#FFFFFF" fill-opacity="0"/>
	<g clip-path="url(#clip48_10415)">
		<path id="Vector" d="M12.0242 17.9893C18.6637 17.9766 23.9886 13.9438 23.986 9.00977C23.9835 4.03564 18.6534 0.0146484 12.0139 0.0117188L12.0165 1.729C18.1896 1.73193 23.1865 4.96436 23.1891 9.00684C23.1917 13.0146 18.1998 16.2563 12.0242 16.2686L12.0242 17.9893ZM11.996 0.0117188C5.38214 0.0180664 0.0111084 4.05127 0.0136719 9.03174C0.0187988 13.9688 5.3924 17.9956 12.0062 17.9893L12.0242 17.9893L12.0242 16.272L12.0037 16.272C5.86133 16.2783 0.851624 13.04 0.84906 9.02832C0.846497 4.97998 5.85107 1.73535 11.9935 1.729L12.0139 1.729L12.0139 0.0117188L11.996 0.0117188Z" fill="#FFFFFF" fill-opacity="1.000000" fill-rule="evenodd"/>
		<path id="Vector" d="M15.5145 12.3379L17.0059 12.3345L17.0034 7.31689L18.6459 7.31689L19.079 7.92432L19.079 10.6733L17.3237 10.6768L17.3237 12.3345L19.8247 12.3315L20.5704 12.3315L20.5678 6.84277L19.735 5.65234L15.5094 5.65869L15.5145 12.3379ZM11.4478 12.3408L13.093 12.3379L13.0904 9.62646L14.3434 9.62646L14.9431 8.94971L14.9405 5.65869L13.2877 5.65869L13.2877 7.75L13.0443 8.02734L11.4453 8.03027L11.4478 12.3408ZM9.22095 8.95312L9.82062 9.62939L11.1301 9.62646L11.1301 8.03027L10.8866 7.75293L10.8866 5.65869L9.21844 5.66504L9.22095 8.95312ZM8.64954 6.70264L7.91919 5.66162L6.03577 5.66504L6.03833 7.29785L7.23505 7.29785L7.23505 8.48242L6.03833 8.48242L6.04089 9.52637L7.2453 9.52637L7.24274 10.7139L6.04089 10.7139L6.04089 12.3472L7.84747 12.3442L8.6521 11.6675L8.64954 9.43311L8.27539 9.00928L8.64954 8.62256L8.64954 6.70264ZM6.03833 5.66504L3.42969 5.66797L3.43481 12.3472L4.84674 12.3472L4.84674 9.52637L6.04089 9.52344L6.03833 8.47949L4.84161 8.47949L4.84161 7.29492L6.03833 7.29492L6.03833 5.66504ZM6.04089 10.7109L6.04089 12.3442L5.16193 12.3442L5.16193 10.7109L6.04089 10.7109Z" fill="#FFFFFF" fill-opacity="1.000000" fill-rule="evenodd"/>
	</g>
</svg>
