<svg width="14" height="14" viewBox="0 0 14 14" fill="none" xmlns="http://www.w3.org/2000/svg">
<path d="M7 9.52628C5.60583 9.52628 4.47417 8.39461 4.47417 7.00044C4.47417 5.60628 5.60583 4.47461 7 4.47461C8.39417 4.47461 9.52583 5.60628 9.52583 7.00044C9.52583 8.39461 8.39417 9.52628 7 9.52628ZM7 5.34961C6.09 5.34961 5.34917 6.09044 5.34917 7.00044C5.34917 7.91044 6.09 8.65128 7 8.65128C7.91 8.65128 8.65083 7.91044 8.65083 7.00044C8.65083 6.09044 7.91 5.34961 7 5.34961Z" fill="#7F8393"/>
<path d="M7 12.2616C4.80667 12.2616 2.73584 10.9783 1.3125 8.74995C0.694172 7.78745 0.694172 6.21828 1.3125 5.24995C2.74167 3.02161 4.8125 1.73828 7 1.73828C9.1875 1.73828 11.2583 3.02161 12.6817 5.24995C13.3 6.21245 13.3 7.78161 12.6817 8.74995C11.2583 10.9783 9.1875 12.2616 7 12.2616ZM7 2.61328C5.11584 2.61328 3.31334 3.74495 2.05334 5.72245C1.61584 6.40495 1.61584 7.59495 2.05334 8.27745C3.31334 10.2549 5.11584 11.3866 7 11.3866C8.88417 11.3866 10.6867 10.2549 11.9467 8.27745C12.3842 7.59495 12.3842 6.40495 11.9467 5.72245C10.6867 3.74495 8.88417 2.61328 7 2.61328Z" fill="#7F8393"/>
</svg>
