<svg width="40" height="40" viewBox="0 0 40 40" fill="none" xmlns="http://www.w3.org/2000/svg">
<path d="M20.0023 39.9997L25.5983 8.39266C30.9322 8.39266 32.6147 8.98007 32.8576 11.3777C32.8576 11.3777 36.4357 10.0378 38.2404 7.31654C31.198 4.03922 24.122 3.89142 24.122 3.89142L19.993 8.94205L20.0023 8.94142L15.8734 3.89062C15.8734 3.89062 8.79722 4.03859 1.75577 7.31591C3.55888 10.0372 7.13844 11.3771 7.13844 11.3771C7.38278 8.97928 9.06317 8.39187 14.3613 8.38807L20.0023 39.9997Z" fill="#111215"/>
<path d="M20 2.43328C25.6928 2.38955 32.2088 3.31772 38.8793 6.23749C39.7708 4.62592 40 3.91368 40 3.91368C32.7082 1.0164 25.8796 0.0248714 19.9992 0C14.1192 0.0248714 7.29084 1.01656 0 3.91368C0 3.91368 0.325257 4.79099 1.11994 6.23749C7.78914 3.31772 14.3063 2.38955 19.9992 2.43328H20Z" fill="#111215"/>
</svg>
