<svg width="21" height="20" viewBox="0 0 21 20" fill="none" xmlns="http://www.w3.org/2000/svg">
<path d="M18.8334 6.04199H13.8334C13.4917 6.04199 13.2084 5.75866 13.2084 5.41699C13.2084 5.07533 13.4917 4.79199 13.8334 4.79199H18.8334C19.175 4.79199 19.4584 5.07533 19.4584 5.41699C19.4584 5.75866 19.175 6.04199 18.8334 6.04199Z" fill="white"/>
<path d="M5.49996 6.04199H2.16663C1.82496 6.04199 1.54163 5.75866 1.54163 5.41699C1.54163 5.07533 1.82496 4.79199 2.16663 4.79199H5.49996C5.84163 4.79199 6.12496 5.07533 6.12496 5.41699C6.12496 5.75866 5.84163 6.04199 5.49996 6.04199Z" fill="white"/>
<path d="M8.83329 8.95833C6.88329 8.95833 5.29163 7.36667 5.29163 5.41667C5.29163 3.46667 6.88329 1.875 8.83329 1.875C10.7833 1.875 12.375 3.46667 12.375 5.41667C12.375 7.36667 10.7833 8.95833 8.83329 8.95833ZM8.83329 3.125C7.56663 3.125 6.54163 4.15 6.54163 5.41667C6.54163 6.68333 7.56663 7.70833 8.83329 7.70833C10.1 7.70833 11.125 6.68333 11.125 5.41667C11.125 4.15 10.1 3.125 8.83329 3.125Z" fill="white"/>
<path d="M18.8333 15.208H15.5C15.1583 15.208 14.875 14.9247 14.875 14.583C14.875 14.2413 15.1583 13.958 15.5 13.958H18.8333C19.175 13.958 19.4583 14.2413 19.4583 14.583C19.4583 14.9247 19.175 15.208 18.8333 15.208Z" fill="white"/>
<path d="M7.16663 15.208H2.16663C1.82496 15.208 1.54163 14.9247 1.54163 14.583C1.54163 14.2413 1.82496 13.958 2.16663 13.958H7.16663C7.50829 13.958 7.79163 14.2413 7.79163 14.583C7.79163 14.9247 7.50829 15.208 7.16663 15.208Z" fill="white"/>
<path d="M12.1667 18.1253C10.2167 18.1253 8.625 16.5337 8.625 14.5837C8.625 12.6337 10.2167 11.042 12.1667 11.042C14.1167 11.042 15.7083 12.6337 15.7083 14.5837C15.7083 16.5337 14.1167 18.1253 12.1667 18.1253ZM12.1667 12.292C10.9 12.292 9.875 13.317 9.875 14.5837C9.875 15.8503 10.9 16.8753 12.1667 16.8753C13.4333 16.8753 14.4583 15.8503 14.4583 14.5837C14.4583 13.317 13.4333 12.292 12.1667 12.292Z" fill="white"/>
</svg>
