<svg width="267.000000" height="267.000000" viewBox="0 0 267 267" fill="none" xmlns="http://www.w3.org/2000/svg" xmlns:xlink="http://www.w3.org/1999/xlink">
	<desc>
			Created with Pixso.
	</desc>
	<defs/>
	<mask id="mask_48_11775" fill="white">
		<path id="Subtract" d="M267 40L267 227C267 249.091 249.091 267 227 267L184.64 267C169.815 267 156.596 256.299 142.354 252.179C139.702 251.411 136.899 251 134 251C131.101 251 128.298 251.411 125.646 252.179C111.404 256.299 98.1852 267 83.3597 267L40 267C17.9086 267 0 249.091 0 227L0 40C0 17.9086 17.9086 0 40 0L83.3597 0C98.1852 0 111.404 10.7006 125.646 14.8214C128.298 15.5887 131.101 16 134 16C136.899 16 139.702 15.5887 142.354 14.8214C156.596 10.7006 169.815 0 184.64 0L227 0C249.091 0 267 17.9086 267 40Z" clip-rule="evenodd" fill="" fill-opacity="1.000000" fill-rule="evenodd"/>
	</mask>
	<path id="Subtract" d="M267 40L267 227C267 249.091 249.091 267 227 267L184.64 267C169.815 267 156.596 256.299 142.354 252.179C139.702 251.411 136.899 251 134 251C131.101 251 128.298 251.411 125.646 252.179C111.404 256.299 98.1852 267 83.3597 267L40 267C17.9086 267 0 249.091 0 227L0 40C0 17.9086 17.9086 0 40 0L83.3597 0C98.1852 0 111.404 10.7006 125.646 14.8214C128.298 15.5887 131.101 16 134 16C136.899 16 139.702 15.5887 142.354 14.8214C156.596 10.7006 169.815 0 184.64 0L227 0C249.091 0 267 17.9086 267 40Z" clip-rule="evenodd" fill="#FFFFFF" fill-opacity="1.000000" fill-rule="evenodd" mask="url(#mask_48_11775)"/>
	<path id="Subtract" d="M267 227L267 40C267 17.9086 249.091 0 227 0L184.64 0C169.815 0 156.596 10.7006 142.354 14.8214C139.702 15.5887 136.899 16 134 16C131.101 16 128.298 15.5887 125.646 14.8214C111.404 10.7006 98.1852 0 83.3597 0L40 0C17.9086 0 0 17.9086 0 40L0 227C0 249.091 17.9086 267 40 267L83.3597 267C98.1852 267 111.404 256.299 125.646 252.179C128.298 251.411 131.101 251 134 251C136.899 251 139.702 251.411 142.354 252.179C156.596 256.299 169.815 267 184.64 267L227 267C249.091 267 267 249.091 267 227ZM263.144 25.0287Q266 31.9229 266 40L266 227Q266 235.077 263.144 241.971Q260.289 248.866 254.577 254.577Q248.866 260.289 241.971 263.144Q235.077 266 227 266L184.64 266Q175.695 266 158.777 257.903Q148.142 252.812 142.632 251.218Q141.021 250.752 139.379 250.464Q136.73 250 134 250Q131.27 250 128.621 250.464Q126.979 250.752 125.368 251.218Q119.858 252.812 109.223 257.903Q92.3052 266 83.3597 266L40 266Q31.9226 266 25.0282 263.144Q18.1341 260.288 12.4229 254.577Q6.71093 248.865 3.85522 241.97Q1 235.076 1 227L1 40Q0.999878 31.9232 3.85532 25.0292Q6.71103 18.1346 12.4229 12.4229Q18.1349 6.71093 25.0299 3.85522Q31.9237 1 40.0001 1L83.3597 1Q92.3049 1 109.223 9.09735Q119.858 14.1878 125.368 15.782Q126.979 16.2482 128.621 16.5359Q131.27 17 134 17Q136.731 17 139.381 16.5355Q141.022 16.2478 142.632 15.782Q148.142 14.1877 158.777 9.09735Q175.695 1 184.64 1L227 1Q235.077 1 241.971 3.85563Q248.866 6.71135 254.577 12.4229Q260.289 18.1343 263.144 25.0287Z" clip-rule="evenodd" fill="#FFFFFF" fill-opacity="0.000000" fill-rule="evenodd"/>
</svg>
