<svg width="20" height="20" viewBox="0 0 20 20" fill="none" xmlns="http://www.w3.org/2000/svg">
<rect width="20" height="20" rx="10" fill="#CDDBFF"/>
<path d="M14.9117 8.24995C14.83 8.24411 14.725 8.23828 14.6083 8.23828C14.3808 8.23828 14.2 8.41912 14.2 8.64662V11.3591C14.2 11.5866 14.3808 11.7674 14.6083 11.7674C14.725 11.7674 14.8242 11.7616 14.9233 11.7558C15.8333 11.6508 15.8333 11.0091 15.8333 10.5424V9.45745C15.8333 8.99078 15.8333 8.34911 14.9117 8.24995Z" fill="#275DFB"/>
<path d="M10.5425 5.79395H7.2875C4.89584 5.79395 4.16667 6.52311 4.16667 8.91478V11.0848C4.16667 13.4764 4.89584 14.2056 7.2875 14.2056H10.5425C12.9342 14.2056 13.6633 13.4764 13.6633 11.0848V8.91478C13.6633 6.52311 12.9342 5.79395 10.5425 5.79395ZM7.14167 11.2714C7.09501 11.4698 6.91417 11.6039 6.71584 11.6039C6.68084 11.6039 6.64584 11.5981 6.61084 11.5923C6.37751 11.5339 6.23167 11.2948 6.29 11.0614C6.465 10.3673 6.465 9.63228 6.29 8.93811C6.23167 8.70478 6.37167 8.46561 6.61084 8.40728C6.85 8.34895 7.08334 8.49478 7.14167 8.72811C7.35167 9.56228 7.35167 10.4373 7.14167 11.2714ZM9.18334 11.2714C9.13667 11.4698 8.95584 11.6039 8.7575 11.6039C8.72251 11.6039 8.6875 11.5981 8.6525 11.5923C8.41917 11.5339 8.27334 11.2948 8.33167 11.0614C8.50667 10.3673 8.50667 9.63228 8.33167 8.93811C8.27334 8.70478 8.41334 8.46561 8.6525 8.40728C8.88584 8.34895 9.12501 8.48895 9.18334 8.72811C9.39334 9.56228 9.39334 10.4373 9.18334 11.2714ZM11.225 11.2714C11.1783 11.4698 10.9975 11.6039 10.7992 11.6039C10.7642 11.6039 10.7292 11.5981 10.6942 11.5923C10.4608 11.5339 10.315 11.2948 10.3733 11.0614C10.5483 10.3673 10.5483 9.63228 10.3733 8.93811C10.315 8.70478 10.455 8.46561 10.6942 8.40728C10.9275 8.34895 11.1667 8.48895 11.225 8.72811C11.435 9.56228 11.435 10.4373 11.225 11.2714Z" fill="#275DFB"/>
</svg>
