<svg width="34" height="13" viewBox="0 0 34 13" fill="none" xmlns="http://www.w3.org/2000/svg">
<path d="M8.34592 6.466C8.89792 6.754 9.32992 7.156 9.64192 7.672C9.95392 8.176 10.1099 8.752 10.1099 9.4C10.1099 10.432 9.74392 11.29 9.01192 11.974C8.27992 12.658 7.38592 13 6.32992 13H0.929922V0.399999H5.93392C6.96592 0.399999 7.83592 0.735999 8.54392 1.408C9.26392 2.08 9.62392 2.908 9.62392 3.892C9.62392 4.972 9.19792 5.83 8.34592 6.466ZM5.93392 2.344H2.99992V5.656H5.93392C6.38992 5.656 6.77392 5.5 7.08592 5.188C7.39792 4.864 7.55392 4.468 7.55392 4C7.55392 3.532 7.39792 3.142 7.08592 2.83C6.77392 2.506 6.38992 2.344 5.93392 2.344ZM2.99992 11.056H6.32992C6.80992 11.056 7.21192 10.888 7.53592 10.552C7.87192 10.204 8.03992 9.784 8.03992 9.292C8.03992 8.8 7.87192 8.386 7.53592 8.05C7.21192 7.702 6.80992 7.528 6.32992 7.528H2.99992V11.056ZM18.6798 0.399999H21.0378L16.6458 7.996V13H14.5758V7.996L10.1838 0.399999H12.5418L15.6198 5.98L18.6798 0.399999ZM22.3928 0.399999H27.3428C29.0708 0.399999 30.5048 1.006 31.6448 2.218C32.7968 3.43 33.3728 4.924 33.3728 6.7C33.3728 8.464 32.7968 9.958 31.6448 11.182C30.5048 12.394 29.0708 13 27.3428 13H22.3928V0.399999ZM24.4628 11.02H27.3428C28.5308 11.02 29.4968 10.612 30.2408 9.796C30.9968 8.98 31.3748 7.948 31.3748 6.7C31.3748 5.452 30.9968 4.42 30.2408 3.604C29.4968 2.788 28.5308 2.38 27.3428 2.38H24.4628V11.02Z" fill="#111215"/>
</svg>
