<svg width="40" height="40" viewBox="0 0 40 40" fill="none" xmlns="http://www.w3.org/2000/svg">
<path fill-rule="evenodd" clip-rule="evenodd" d="M20.0381 34.482C30.5507 34.4623 38.9818 28.0765 38.9777 20.2646C38.9737 12.3885 30.5344 6.02251 20.0219 6.01758L20.026 8.7367C29.8001 8.74163 37.7118 13.8591 37.7159 20.2597C37.7199 26.6059 29.8163 31.7382 20.0381 31.7579V34.482ZM19.9935 6.01758C9.52157 6.02745 1.01743 12.4132 1.02149 20.2991C1.0296 28.116 9.5378 34.4919 20.0097 34.482H20.0381V31.7629H20.0057C10.2803 31.7727 2.34823 26.6454 2.34417 20.2942C2.34011 13.8838 10.2641 8.74657 19.9895 8.7367H20.0219V6.01758H19.9935Z" fill="#111215"/>
<path fill-rule="evenodd" clip-rule="evenodd" d="M25.564 25.5345L27.9254 25.5296L27.9213 17.5844H30.5221L31.2077 18.5467V22.8993L28.4285 22.9043V25.5296L32.3884 25.5247H33.5691L33.565 16.8343L32.2464 14.9492L25.5559 14.9591L25.564 25.5345ZM19.125 25.5395L21.7298 25.5345L21.7258 21.2412H23.7098L24.6592 20.1703L24.6552 14.9591H22.0382V18.2704L21.6528 18.7096L19.121 18.7145L19.125 25.5395ZM15.5992 20.1753L16.5486 21.2461L18.6219 21.2412V18.7145L18.2365 18.2753V14.9591L15.5952 14.969L15.5992 20.1753ZM14.6944 16.6123L13.5381 14.964L10.556 14.969L10.56 17.5548H12.4548V19.4301H10.56L10.5641 21.0833H12.471L12.467 22.9635H10.5641V25.5494L13.4245 25.5444L14.6985 24.4735L14.6944 20.9352L14.1021 20.2641L14.6944 19.6522V16.6123ZM10.56 14.969L6.42969 14.9739L6.4378 25.5494H8.67339V21.0833L10.5641 21.0783L10.56 19.4252H8.66527V17.5499H10.56V14.969ZM10.5641 22.9585V25.5444H9.17244V22.9585H10.5641Z" fill="#111215"/>
</svg>
