<svg width="40" height="40" viewBox="0 0 40 40" fill="none" xmlns="http://www.w3.org/2000/svg">
<path d="M32.7989 4.19831C32.7989 3.94667 32.6596 3.71512 32.4095 3.54117C32.0201 3.2702 31.5455 3.2702 31.463 3.2702C27.8421 3.09664 23.9978 3 19.9039 3C15.8651 3 12.0481 3.09664 8.45561 3.2702C8.09352 3.2702 7.75928 3.36684 7.50915 3.54137C7.11837 3.81157 7.11837 4.13994 7.11837 4.19812C7.06294 6.03444 7.03509 7.89008 7.00752 9.76467C6.97911 12.7025 7.03453 15.5827 7.11837 18.4235C7.11837 20.2982 7.3969 21.9214 7.50915 23.2171C7.73087 25.8451 8.6503 27.9524 8.6503 27.9711C9.65358 29.8072 10.2106 30.8318 11.4913 32.4746C12.5498 33.8079 13.6369 34.9486 14.6672 35.915C14.8335 36.07 15.1685 36.3402 15.7256 36.5532C16.1991 36.7267 16.6439 36.7849 16.9225 36.8234C17.731 36.92 18.6505 36.978 19.6808 36.9969C20.9342 37.0166 22.0199 36.9397 22.9675 36.8234C23.2179 36.8036 23.6073 36.7464 24.0535 36.5914C24.527 36.4171 24.8055 36.2049 24.9726 36.07C26.0032 35.0454 27.0889 33.866 28.1206 32.5516C29.401 30.9087 30.0135 30.252 31.1845 27.9711C31.9078 26.0383 32.0471 25.014 32.3256 23.3137C32.61 21.7618 32.7681 20.2 32.7991 18.6357C32.9384 16.0077 33.022 13.2821 32.9949 10.4609C32.9949 8.33481 32.9111 6.24743 32.7989 4.19831ZM31.7131 18.6554C31.6574 19.9886 31.5455 21.4579 31.2669 23.0428C30.9884 24.6272 30.6274 26.0965 30.2096 27.4108C29.5133 28.7255 28.5938 30.175 27.3959 31.7015C26.4494 32.9381 25.4461 34.0406 24.4997 35.007C24.3604 35.1421 24.0819 35.3353 23.6357 35.5089C23.326 35.6304 22.9853 35.7092 22.6324 35.7408C21.7968 35.8375 20.7665 35.9152 19.6253 35.8954C18.6775 35.8954 17.8149 35.8185 17.0901 35.7408C16.7067 35.7117 16.3366 35.6262 16.0044 35.4901C15.5028 35.2969 15.1958 35.0454 15.0566 34.8906C14.1101 33.9822 13.1068 32.9192 12.132 31.6629C10.9624 30.1167 10.1268 28.6671 9.54161 27.4297C9.54161 27.411 8.90182 25.5936 8.48402 22.9656C8.28793 21.7478 8.14867 20.2209 8.12137 18.4621C8.03753 15.7949 8.00912 13.089 8.03753 10.3445C8.03753 8.5853 8.06594 6.82687 8.12109 5.10633C8.12109 5.04912 8.12109 4.73949 8.48374 4.48803C8.70545 4.33341 9.0124 4.23678 9.34636 4.23678C12.8415 4.07128 16.3438 3.98767 19.8471 3.9861C23.58 3.9861 27.1171 4.08273 30.4313 4.23658C30.5149 4.23658 30.9611 4.23658 31.2951 4.48803C31.5179 4.64285 31.6571 4.87459 31.6571 5.10652C31.7686 7.02034 31.8237 8.97205 31.8237 11.0014C31.9076 13.6107 31.8521 16.1813 31.7129 18.6554H31.7131Z" fill="#111215"/>
<path d="M19.3894 36H20.6944L20.9169 5H19.1397L19.3894 36ZM10.8061 5.21716C10.4733 5.23735 10 5.59388 10 5.83124L10.5286 15.4121C10.5839 15.8484 10.6675 16.3029 10.8064 16.7585C11.1672 17.6891 12.1117 18.2038 14.0839 20.5005C14.695 21.1934 16.7228 23.0336 16.8889 24.7163C17.1114 27.1514 17.2786 31.9024 17.5281 36H18.1392L17.8614 5L10.8061 5.21716ZM29.195 5.21716L22.14 5L21.8622 36H22.4731C22.7225 31.9024 22.8897 27.1514 23.1119 24.7163C23.2781 23.0144 25.3061 21.1934 25.9169 20.5005C27.8897 18.2038 28.8067 17.6887 29.195 16.7585C29.3339 16.2837 29.4172 15.8484 29.4728 15.4123L30 5.83124C30 5.59368 29.5281 5.21716 29.195 5.21716Z" fill="#111215"/>
</svg>
