<svg width="40" height="40" viewBox="0 0 40 40" fill="none" xmlns="http://www.w3.org/2000/svg">
<path d="M38.9214 18.5814C36.7924 16.4378 25.115 4.71103 22.986 3.00876C22.2118 2.44133 21.2441 2 20.0183 2C18.7925 2 17.8247 2.44133 17.0505 3.00876C14.857 4.71103 3.24416 16.4378 1.05062 18.5814C0.921588 18.7706 1.05062 19.0858 1.30868 19.0858H6.34091C6.85704 19.0858 7.05059 19.0228 7.37316 18.6445C7.69574 18.2662 9.37315 16.5639 9.37315 16.5639C11.5022 14.3573 16.5989 9.43958 18.4699 7.92645C19.1795 7.35902 19.9537 7.35902 19.9537 7.35902C19.9537 7.35902 20.7924 7.35902 21.4376 7.92645C23.3731 9.50263 28.5343 14.3573 30.5988 16.5639C30.5988 16.5639 32.2763 18.3292 32.5988 18.6445C32.9214 19.0228 33.115 19.0858 33.6311 19.0858H38.6633C38.9214 19.0858 39.1149 18.7706 38.9214 18.5814ZM1.05062 21.4186C3.17964 23.5622 14.857 35.289 16.986 36.9912C17.7602 37.5587 18.7279 38 19.9537 38C21.1795 38 22.1473 37.5587 22.9215 36.9912C25.115 35.289 36.7278 23.5622 38.8569 21.4186C39.0504 21.2294 38.8569 20.9142 38.5988 20.9142H33.5666C33.0504 20.9142 32.8569 20.9772 32.5343 21.3555C32.2117 21.7338 30.5343 23.4361 30.5343 23.4361C28.4053 25.6427 23.3086 30.5604 21.4376 32.0736C20.7279 32.641 19.9537 32.641 19.9537 32.641C19.9537 32.641 19.115 32.641 18.4699 32.0736C16.5989 30.5604 11.4377 25.6427 9.37315 23.4361C9.37315 23.4361 7.69574 21.6708 7.37316 21.3555C7.05059 20.9772 6.85704 20.9142 6.34091 20.9142H1.30868C1.05062 20.8511 0.921588 21.1664 1.05062 21.4186ZM18.5989 23.8774C17.6312 22.9947 15.9538 21.4186 15.3086 20.725C15.0505 20.4098 15.0505 20.0315 15.0505 20.0315C15.0505 20.0315 15.0505 19.6532 15.3086 19.338C15.9538 18.6445 17.6312 17.0053 18.5989 16.1856C18.986 15.8074 19.115 15.6182 19.115 15.1769V10.3222C19.115 10.1331 18.857 10.007 18.7279 10.1961C16.5989 12.1506 11.8248 16.7531 10.2119 18.5184C9.43767 19.338 9.50218 20.0946 9.50218 20.0946C9.50218 20.0946 9.43767 20.9142 10.2119 21.6708C11.8248 23.4361 16.5989 28.1016 18.7279 29.993C18.9215 30.1821 19.115 30.056 19.115 29.8039V24.9492C19.0505 24.4448 18.986 24.2557 18.5989 23.8774ZM21.3731 23.8774C22.3408 22.9947 24.0182 21.4186 24.6634 20.725C24.9215 20.4098 24.9215 20.0315 24.9215 20.0315C24.9215 20.0315 24.9215 19.6532 24.6634 19.338C24.0182 18.6445 22.3408 17.0053 21.3731 16.1856C20.986 15.8074 20.857 15.6182 20.857 15.1769V10.3222C20.857 10.0701 21.0505 10.007 21.2441 10.1331C23.3731 12.0876 28.1472 16.69 29.7601 18.4553C30.5343 19.275 30.4698 20.0315 30.4698 20.0315C30.4698 20.0315 30.5343 20.8511 29.7601 21.6077C28.1472 23.373 23.3731 28.0385 21.2441 29.9299C21.0505 30.1191 20.857 29.993 20.857 29.7408V24.8862C20.9215 24.4448 20.986 24.2557 21.3731 23.8774Z" fill="#111215"/>
</svg>
