<svg width="40" height="40" viewBox="0 0 40 40" fill="none" xmlns="http://www.w3.org/2000/svg">
<path d="M12.5813 18.8405H12.5799L7.68289 18.8524C7.63268 18.8524 7.60199 18.8585 7.58316 18.8659V18.8958C7.57898 19.1105 7.58314 20.6076 7.59291 21.0295C7.595 21.1145 7.59986 21.1652 7.60265 21.1891C7.61381 21.1921 7.63125 21.198 7.66054 21.198H7.97927C9.13552 21.192 10.3343 21.1891 10.4675 21.198C10.706 21.2129 10.835 21.4635 10.8504 21.9391V21.9526C10.8567 22.1226 10.8566 22.4536 10.8517 23.6435C10.8448 25.0512 10.3741 25.5821 9.97376 25.6104C9.66203 25.6328 4.21759 25.6238 3.71059 25.5999C3.08644 25.5701 2.83471 24.6038 2.8089 23.7837C2.80611 23.6897 2.80193 22.5834 2.79426 20.0887C2.78938 18.4797 2.78449 16.8141 2.7817 16.4383C2.77752 15.9299 2.86818 15.4378 3.03067 15.0873C3.19385 14.731 3.41562 14.5416 3.67156 14.5431C6.68005 14.5476 12.4055 14.552 12.5464 14.5431C12.5701 14.5416 12.5854 14.5341 12.5931 14.5282V14.5118C12.5931 14.4283 12.5952 14.2776 12.5966 14.0898C12.6015 13.5917 12.6098 12.7582 12.5987 12.2571C12.5959 12.1349 12.5868 12.0737 12.5813 12.0469C12.5715 12.0454 12.5562 12.0469 12.5464 12.0469H12.5073C12.2326 12.0245 3.88355 11.9768 2.58225 12.0424C1.30465 12.1051 1.00406 14.9486 1.00127 15.4691C0.999179 16.1132 0.995009 23.7166 1.03336 24.6366C1.16029 27.6786 2.58226 27.9783 2.59621 27.9783L2.74893 27.9813C4.86338 27.9917 9.90262 28.0096 11.031 27.9336C12.3281 27.8456 12.5931 25.2316 12.5931 24.5353L12.5938 24.1177C12.5952 22.9785 12.5994 19.5146 12.5903 19.0359C12.5889 18.9435 12.5854 18.8823 12.5813 18.8405Z" fill="#111215"/>
<path d="M26.6978 12.2951C26.695 12.1639 26.6852 12.0998 26.6817 12.0744C26.6789 12.0715 26.6761 12.0714 26.6726 12.0714C25.4599 12.061 23.6258 12.0521 23.5317 12.0581C23.4334 12.0685 23.4334 12.0685 23.4131 12.1341C23.3553 12.3325 22.1613 16.8551 21.3705 19.8478L20.5629 22.9016C20.4569 23.2983 20.3265 23.3789 20.2373 23.3729C20.1396 23.3684 20.0008 23.2655 19.8872 22.7928C19.8286 22.5557 17.2706 12.8394 17.1486 12.3935C17.1032 12.225 17.0565 12.0566 17.0349 12.0104C16.8557 11.991 14.0264 12.0028 13.91 12.0133H13.9155C13.8927 12.0153 13.8699 12.0144 13.8472 12.0104C13.8367 12.0104 13.8214 12.0059 13.8081 12.0074C13.8061 12.0415 13.8052 12.0758 13.8053 12.1102L13.8012 15.4743C13.7956 19.7211 13.7858 27.6256 13.7893 27.8761V27.891C13.7893 27.9134 13.7893 27.9373 13.79 27.9597C14.0585 28.0089 15.2587 28.0089 15.5132 27.982C15.5307 27.9791 15.5446 27.9761 15.5537 27.9716C15.5537 27.9537 15.5537 27.9268 15.5523 27.891C15.5467 27.6032 15.5411 15.5234 15.5411 15.3997C15.5411 14.8897 15.6917 14.7466 15.7378 14.7138C15.7838 14.6825 15.9442 14.6109 16.0837 15.018C16.1346 15.1671 16.8117 17.7483 18.3097 23.4788C18.8892 25.6991 19.4374 27.7927 19.4729 27.9194C19.4787 27.9377 19.4848 27.9555 19.4911 27.973L20.9849 27.9865C20.9911 27.9865 20.9967 27.9865 21.0023 27.985C22.1425 24.0513 23.7053 17.8646 24.2207 15.8247C24.312 15.4638 24.3665 15.2446 24.3846 15.1745C24.4885 14.7838 24.6084 14.7347 24.6921 14.7645C24.8058 14.8033 24.8895 15.0061 24.9181 15.3043L24.9215 15.3445V15.3863C24.9215 15.8635 24.9271 27.0426 24.9215 27.7181C24.9208 27.8329 24.9236 27.909 24.9285 27.9582H26.6726C26.6845 27.9582 26.6936 27.9552 26.6978 27.9552C26.6992 27.9403 26.7013 27.9179 26.7013 27.8836C26.7026 23.6726 26.7068 12.6664 26.6978 12.2951Z" fill="#111215"/>
<path d="M38.9831 25.681C38.9789 25.4752 38.9649 25.3992 38.9593 25.3783C38.9552 25.3753 38.9447 25.3724 38.9266 25.3724L38.2947 25.3753C36.4676 25.3828 30.9046 25.4051 30.4646 25.3902C29.9925 25.3753 29.6752 24.7371 29.6131 23.6844C29.5971 23.4011 29.5866 21.2538 29.574 18.4787C29.5691 17.502 29.5663 16.7297 29.5636 16.5194C29.5573 16.0497 29.6515 15.5547 29.8146 15.1983C29.9395 14.9239 30.1626 14.5959 30.5232 14.5959L31.4353 14.5973C33.5909 14.6003 38.6365 14.6093 38.8645 14.5973C38.921 14.5914 38.9538 14.5869 38.974 14.5779C38.9782 14.5094 38.9817 14.4109 38.9831 14.3602C38.9928 14.0635 38.9942 13.5819 38.9949 13.1524C38.9949 12.8452 38.9963 12.556 38.9991 12.3398C39.0026 12.1564 39.0026 12.1057 38.8694 12.0952C38.6686 12.0788 30.6549 12.0608 29.5036 12.11C28.5 12.1578 27.8878 13.9979 27.8954 15.6784C27.8996 16.3658 27.8968 18.619 27.892 20.799L27.8878 24.3375C27.8878 26.3282 28.5558 27.8611 29.4471 27.9088C30.4325 27.9565 38.5172 27.861 38.8638 27.8372C38.921 27.8357 38.9524 27.8253 38.9712 27.8163C38.974 27.794 38.974 27.7627 38.9754 27.715C38.9831 27.3273 38.9914 26.1328 38.9831 25.681Z" fill="#111215"/>
</svg>
