<svg width="24" height="24" viewBox="0 0 24 24" fill="none" xmlns="http://www.w3.org/2000/svg">
<g clip-path="url(#clip0_48_1934)">
<path d="M12 24C18.6274 24 24 18.6274 24 12C24 5.37258 18.6274 0 12 0C5.37258 0 0 5.37258 0 12C0 18.6274 5.37258 24 12 24Z" fill="#F1F4FC"/>
<path d="M16.1739 12.0001C16.1739 13.0435 14.3052 15.6522 12 15.6522C9.69483 15.6522 7.82611 13.0435 7.82611 12.0001C7.82611 9.69484 9.69483 7.82617 12 7.82617C14.3052 7.82617 16.1739 9.69484 16.1739 12.0001Z" fill="#F14747"/>
<path d="M16.1739 12C16.1739 14.3052 14.3052 16.1739 12 16.1739C9.69483 16.1739 7.82611 14.3052 7.82611 12" fill="#0052B4"/>
<path d="M16.4238 15.6895L17.5304 14.5829L18.2682 15.3206L17.1616 16.4272L16.4238 15.6895Z" fill="#111215"/>
<path d="M14.5789 17.5342L15.6855 16.4276L16.4233 17.1653L15.3167 18.2719L14.5789 17.5342Z" fill="#111215"/>
<path d="M18.6372 17.9023L19.7438 16.7957L20.4815 17.5335L19.375 18.6401L18.6372 17.9023Z" fill="#111215"/>
<path d="M16.7924 19.7471L17.899 18.6405L18.6367 19.3782L17.5301 20.4848L16.7924 19.7471Z" fill="#111215"/>
<path d="M17.5305 16.7959L18.6371 15.6893L19.3748 16.427L18.2682 17.5336L17.5305 16.7959Z" fill="#111215"/>
<path d="M15.6861 18.6406L16.7927 17.534L17.5304 18.2718L16.4238 19.3784L15.6861 18.6406Z" fill="#111215"/>
<path d="M18.6421 8.3125L15.6911 5.36156L16.4289 4.62382L19.3798 7.57476L18.6421 8.3125Z" fill="#111215"/>
<path d="M15.6906 7.5752L14.584 6.4686L15.3217 5.73089L16.4283 6.83748L15.6906 7.5752Z" fill="#111215"/>
<path d="M17.5349 9.41992L16.4283 8.31332L17.166 7.57561L18.2726 8.68221L17.5349 9.41992Z" fill="#111215"/>
<path d="M17.9036 5.36133L16.797 4.25473L17.5347 3.51699L18.6413 4.62358L17.9036 5.36133Z" fill="#111215"/>
<path d="M19.7489 7.20703L18.6423 6.10043L19.38 5.36269L20.4866 6.46929L19.7489 7.20703Z" fill="#111215"/>
<path d="M4.25409 16.7939L7.20503 19.7449L6.46729 20.4826L3.51635 17.5317L4.25409 16.7939Z" fill="#111215"/>
<path d="M7.2049 17.5312L8.31149 18.6378L7.57378 19.3756L6.46719 18.269L7.2049 17.5312Z" fill="#111215"/>
<path d="M5.36041 15.6875L6.46701 16.7941L5.72927 17.5318L4.62267 16.4252L5.36041 15.6875Z" fill="#111215"/>
<path d="M6.46716 14.5801L9.4181 17.531L8.68036 18.2688L5.72942 15.3178L6.46716 14.5801Z" fill="#111215"/>
<path d="M7.20477 4.25293L4.25383 7.20387L3.51609 6.46613L6.46703 3.51519L7.20477 4.25293Z" fill="#111215"/>
<path d="M8.31134 5.35938L5.3604 8.31032L4.62266 7.57257L7.5736 4.62163L8.31134 5.35938Z" fill="#111215"/>
<path d="M9.41901 6.4668L6.46807 9.41774L5.73036 8.68003L8.6813 5.72909L9.41901 6.4668Z" fill="#111215"/>
</g>
<defs>
<clipPath id="clip0_48_1934">
<rect width="24" height="24" fill="white"/>
</clipPath>
</defs>
</svg>
