<svg width="21" height="21" viewBox="0 0 21 21" fill="none" xmlns="http://www.w3.org/2000/svg">
<g clip-path="url(#clip0_48_3908)">
<rect width="20" height="20" rx="6" transform="matrix(1 0 0 -1 0.160477 20.8013)" fill="#C8FF52"/>
<path d="M14.6359 10.2435C14.8004 10.079 15.0105 10.0016 15.219 10.0016C15.4221 10.0016 15.6441 10.0757 15.8045 10.2459C16.1218 10.5659 16.121 11.0907 15.8021 11.4097L10.7437 16.468C10.424 16.7878 9.89732 16.7878 9.57755 16.468L4.51921 11.4097C4.19944 11.0899 4.19944 10.5632 4.51921 10.2435C4.83899 9.9237 5.36562 9.9237 5.68539 10.2435L10.1606 14.7187L14.6359 10.2435Z" fill="#275DFB" stroke="#275DFB" stroke-width="0.4"/>
<path d="M9.33557 -0.895825C9.33557 -1.37686 9.67892 -1.83232 10.1606 -1.83232C10.6422 -1.83232 10.9856 -1.37686 10.9856 -0.895825L10.9856 15.6312C10.9856 16.1122 10.6422 16.5677 10.1606 16.5677C9.67892 16.5677 9.33557 16.1122 9.33557 15.6312L9.33557 -0.895825Z" fill="#275DFB" stroke="#275DFB" stroke-width="0.4"/>
</g>
<defs>
<clipPath id="clip0_48_3908">
<rect width="20" height="20" rx="6" transform="matrix(1 0 0 -1 0.160477 20.8013)" fill="white"/>
</clipPath>
</defs>
</svg>
