<svg width="16.000000" height="16.000000" viewBox="0 0 16 16" fill="none" xmlns="http://www.w3.org/2000/svg" xmlns:xlink="http://www.w3.org/1999/xlink">
	<desc>
			Created with Pixso.
	</desc>
	<defs/>
	<rect id="vuesax/outline/document" width="16.000000" height="16.000000" fill="#FFFFFF" fill-opacity="0"/>
	<path id="Vector" d="M10 15.1664L6 15.1664C2.38 15.1664 0.833344 13.6196 0.833344 9.99963L0.833344 5.99963C0.833344 2.37964 2.38 0.833008 6 0.833008L9.33334 0.833008C9.60669 0.833008 9.83334 1.05969 9.83334 1.33301C9.83334 1.60632 9.60669 1.83301 9.33334 1.83301L6 1.83301C2.92667 1.83301 1.83334 2.92639 1.83334 5.99963L1.83334 9.99963C1.83334 13.073 2.92667 14.1664 6 14.1664L10 14.1664C13.0733 14.1664 14.1667 13.073 14.1667 9.99963L14.1667 6.66638C14.1667 6.39307 14.3933 6.16638 14.6667 6.16638C14.94 6.16638 15.1667 6.39307 15.1667 6.66638L15.1667 9.99963C15.1667 13.6196 13.62 15.1664 10 15.1664Z" fill="#7F8393" fill-opacity="1.000000" fill-rule="nonzero"/>
	<path id="Vector" d="M14.6667 7.16638L12 7.16638C9.71997 7.16638 8.83331 6.27966 8.83331 3.99963L8.83331 1.33301C8.83331 1.13306 8.95331 0.946289 9.13998 0.873047C9.32666 0.792969 9.53998 0.839722 9.68665 0.979614L15.02 6.31299C15.16 6.453 15.2066 6.67297 15.1266 6.85962C15.0467 7.04639 14.8666 7.16638 14.6667 7.16638ZM9.83331 2.53967L9.83331 3.99963C9.83331 5.71973 10.28 6.16638 12 6.16638L13.46 6.16638L9.83331 2.53967Z" fill="#7F8393" fill-opacity="1.000000" fill-rule="nonzero"/>
	<g opacity="0.000000"/>
</svg>
