<svg width="29" height="32" viewBox="0 0 29 32" fill="none" xmlns="http://www.w3.org/2000/svg">
<path d="M0.257259 15.3162C-0.989483 8.24562 3.73171 1.50306 10.8023 0.256313C17.873 -0.990429 24.6155 3.73076 25.8623 10.8014L28.1197 23.6039C28.5033 25.7795 27.0506 27.8541 24.875 28.2377L7.14851 31.3634C4.97293 31.747 2.8983 30.2943 2.51469 28.1187L0.257259 15.3162Z" fill="#F14747"/>
<path d="M9.50805 6.32858C10.149 5.80715 13.0938 4.65634 15.0714 3.91654C15.6878 3.68595 16.2327 4.35329 15.883 4.91084C14.7708 6.68446 13.0731 9.30403 12.4339 9.82409C11.4492 10.6252 9.99594 10.4921 9.18806 9.52683C8.38018 8.56151 8.52328 7.12968 9.50805 6.32858Z" fill="white"/>
</svg>
