<svg width="12" height="12" viewBox="0 0 12 12" fill="none" xmlns="http://www.w3.org/2000/svg">
<path d="M4.5798 5.81C4.5648 5.81 4.5548 5.81 4.5398 5.81C4.5148 5.805 4.4798 5.805 4.4498 5.81C2.9998 5.765 1.9048 4.625 1.9048 3.22C1.9048 1.79 3.0698 0.625 4.4998 0.625C5.9298 0.625 7.0948 1.79 7.0948 3.22C7.0898 4.625 5.9898 5.765 4.5948 5.81C4.5898 5.81 4.5848 5.81 4.5798 5.81ZM4.4998 1.375C3.4848 1.375 2.6548 2.205 2.6548 3.22C2.6548 4.22 3.4348 5.025 4.4298 5.06C4.4598 5.055 4.5248 5.055 4.5898 5.06C5.5698 5.015 6.3398 4.21 6.3448 3.22C6.3448 2.205 5.5148 1.375 4.4998 1.375Z" fill="#275DFB"/>
<path d="M8.2698 5.875C8.2548 5.875 8.2398 5.875 8.2248 5.87C8.0198 5.89 7.8098 5.745 7.7898 5.54C7.7698 5.335 7.8948 5.15 8.0998 5.125C8.1598 5.12 8.2248 5.12 8.2798 5.12C9.0098 5.08 9.5798 4.48 9.5798 3.745C9.5798 2.985 8.9648 2.37 8.2048 2.37C7.9998 2.375 7.8298 2.205 7.8298 2C7.8298 1.795 7.9998 1.625 8.2048 1.625C9.3748 1.625 10.3298 2.58 10.3298 3.75C10.3298 4.9 9.4298 5.83 8.2848 5.875C8.2798 5.875 8.2748 5.875 8.2698 5.875Z" fill="#275DFB"/>
<path d="M4.5848 11.275C3.6048 11.275 2.6198 11.025 1.8748 10.525C1.1798 10.065 0.799805 9.435 0.799805 8.75C0.799805 8.065 1.1798 7.43 1.8748 6.965C3.3748 5.97 5.8048 5.97 7.2948 6.965C7.9848 7.425 8.3698 8.055 8.3698 8.74C8.3698 9.425 7.9898 10.06 7.2948 10.525C6.5448 11.025 5.56481 11.275 4.5848 11.275ZM2.2898 7.595C1.8098 7.915 1.5498 8.325 1.5498 8.755C1.5498 9.18 1.8148 9.59 2.2898 9.905C3.5348 10.74 5.6348 10.74 6.8798 9.905C7.3598 9.585 7.6198 9.175 7.6198 8.745C7.6198 8.32 7.3548 7.91 6.8798 7.595C5.6348 6.765 3.5348 6.765 2.2898 7.595Z" fill="#275DFB"/>
<path d="M9.1698 10.375C8.9948 10.375 8.8398 10.255 8.8048 10.075C8.7648 9.87001 8.8948 9.67501 9.0948 9.63001C9.4098 9.56501 9.6998 9.44001 9.9248 9.26501C10.2098 9.05001 10.3648 8.78001 10.3648 8.49501C10.3648 8.21001 10.2098 7.94001 9.9298 7.73001C9.7098 7.56001 9.4348 7.44001 9.1098 7.36501C8.9098 7.32001 8.7798 7.12001 8.8248 6.91501C8.8698 6.71501 9.0698 6.58501 9.2748 6.63001C9.7048 6.72501 10.0798 6.89501 10.3848 7.13001C10.8498 7.48001 11.1148 7.97501 11.1148 8.49501C11.1148 9.01501 10.8448 9.51001 10.3798 9.86501C10.0698 10.105 9.6798 10.28 9.2498 10.365C9.2198 10.375 9.1948 10.375 9.1698 10.375Z" fill="#275DFB"/>
</svg>
