<svg width="21" height="20" viewBox="0 0 21 20" fill="none" xmlns="http://www.w3.org/2000/svg">
<g id="vuesax/outline/search-normal">
<g id="search-normal">
<path id="Vector" d="M10.0833 18.1253C5.375 18.1253 1.54167 14.292 1.54167 9.58366C1.54167 4.87533 5.375 1.04199 10.0833 1.04199C14.7917 1.04199 18.625 4.87533 18.625 9.58366C18.625 14.292 14.7917 18.1253 10.0833 18.1253ZM10.0833 2.29199C6.05833 2.29199 2.79167 5.56699 2.79167 9.58366C2.79167 13.6003 6.05833 16.8753 10.0833 16.8753C14.1083 16.8753 17.375 13.6003 17.375 9.58366C17.375 5.56699 14.1083 2.29199 10.0833 2.29199Z" fill="#7F8393"/>
<path id="Vector_2" d="M18.8333 18.9585C18.675 18.9585 18.5167 18.9002 18.3917 18.7752L16.725 17.1085C16.4833 16.8669 16.4833 16.4669 16.725 16.2252C16.9667 15.9835 17.3667 15.9835 17.6083 16.2252L19.275 17.8919C19.5167 18.1335 19.5167 18.5335 19.275 18.7752C19.15 18.9002 18.9917 18.9585 18.8333 18.9585Z" fill="#7F8393"/>
</g>
</g>
</svg>
