<svg width="189" height="94" viewBox="0 0 189 94" fill="none" xmlns="http://www.w3.org/2000/svg">
<path fill-rule="evenodd" clip-rule="evenodd" d="M25.3226 24.2885C19.8277 25.2574 15.0927 28.7198 12.5036 33.6624L2.54053 52.6814C-1.2559 59.9287 0.312682 68.8246 6.35886 74.3363L22.2259 88.8007C26.3494 92.5597 31.983 94.1939 37.478 93.225L173.531 69.2351C183.321 67.5089 189.858 58.173 188.132 48.3829L182.228 14.8995C180.502 5.10937 171.166 -1.42767 161.376 0.29859L25.3226 24.2885ZM14.5174 65.7954C16.693 65.4117 18.1457 63.3371 17.762 61.1615C17.3784 58.986 15.3038 57.5333 13.1282 57.9169C10.9526 58.3005 9.49996 60.3751 9.88358 62.5507C10.2672 64.7263 12.3418 66.179 14.5174 65.7954Z" fill="#C8FF52"/>
</svg>
