<svg width="267.000000" height="267.000000" viewBox="0 0 267 267" fill="none" xmlns="http://www.w3.org/2000/svg" xmlns:xlink="http://www.w3.org/1999/xlink">
	<desc>
			Created with Pixso.
	</desc>
	<defs/>
	<mask id="mask_48_11852" fill="white">
		<path id="Subtract" d="M40 0L227 0C249.091 0 267 17.9086 267 40L267 76.42C267 93.3727 253.044 108.213 248.23 124.469C247.43 127.173 247 130.036 247 133C247 135.964 247.43 138.827 248.23 141.532C253.044 157.787 267 172.627 267 189.58L267 227C267 249.091 249.091 267 227 267L40 267C17.9086 267 0 249.091 0 227L0 189.58C0 172.627 13.9565 157.787 18.7695 141.532C19.5702 138.827 20 135.964 20 133C20 130.036 19.5702 127.173 18.7695 124.469C13.9565 108.213 0 93.3727 0 76.42L0 40C0 17.9086 17.9086 0 40 0Z" clip-rule="evenodd" fill="" fill-opacity="1.000000" fill-rule="evenodd"/>
	</mask>
	<path id="Subtract" d="M40 0L227 0C249.091 0 267 17.9086 267 40L267 76.42C267 93.3727 253.044 108.213 248.23 124.469C247.43 127.173 247 130.036 247 133C247 135.964 247.43 138.827 248.23 141.532C253.044 157.787 267 172.627 267 189.58L267 227C267 249.091 249.091 267 227 267L40 267C17.9086 267 0 249.091 0 227L0 189.58C0 172.627 13.9565 157.787 18.7695 141.532C19.5702 138.827 20 135.964 20 133C20 130.036 19.5702 127.173 18.7695 124.469C13.9565 108.213 0 93.3727 0 76.42L0 40C0 17.9086 17.9086 0 40 0Z" clip-rule="evenodd" fill="#FFFFFF" fill-opacity="1.000000" fill-rule="evenodd" mask="url(#mask_48_11852)"/>
	<path id="Subtract" d="M227 0L40 0C17.9086 0 0 17.9086 0 40L0 76.42C0 93.3727 13.9565 108.213 18.7695 124.469C19.5702 127.173 20 130.036 20 133C20 135.964 19.5702 138.827 18.7695 141.532C13.9565 157.787 0 172.627 0 189.58L0 227C0 249.091 17.9086 267 40 267L227 267C249.091 267 267 249.091 267 227L267 189.58C267 172.627 253.044 157.787 248.23 141.532C247.43 138.827 247 135.964 247 133C247 130.036 247.43 127.173 248.23 124.469C253.044 108.213 267 93.3727 267 76.42L267 40C267 17.9086 249.091 0 227 0ZM25.0287 3.85565Q31.9229 1 40 1L227 1Q235.077 1 241.971 3.85565Q248.866 6.71136 254.577 12.4229Q260.289 18.1342 263.144 25.0284Q266 31.9227 266 40L266 76.42Q266 83.0534 262.89 90.9256Q261.003 95.7 255.94 105.12Q249.208 117.646 247.272 124.185Q246.778 125.851 246.476 127.551Q246 130.233 246 133Q246 135.767 246.476 138.449Q246.778 140.149 247.272 141.815Q249.208 148.355 255.94 160.88Q261.003 170.299 262.89 175.074Q266 182.947 266 189.58L266 227Q266 235.077 263.144 241.972Q260.288 248.866 254.577 254.577Q248.865 260.289 241.97 263.145Q235.076 266 227 266L40 266Q31.9232 266 25.0292 263.145Q18.1346 260.289 12.4229 254.577Q6.71093 248.865 3.85522 241.97Q1 235.076 1 227L1 189.58Q1 182.946 4.11035 175.074Q5.99713 170.299 11.0598 160.88Q17.7921 148.355 19.7284 141.815Q20.2209 140.152 20.5227 138.455Q21 135.77 21 133Q21 130.232 20.5234 127.549Q20.2215 125.85 19.7284 124.185Q17.7921 117.645 11.0598 105.12Q5.99713 95.7009 4.11035 90.9256Q1 83.0535 1 76.42L1 40Q1 31.9229 3.85565 25.0287Q6.71136 18.1343 12.4229 12.4229Q18.1343 6.71136 25.0287 3.85565Z" clip-rule="evenodd" fill="#FFFFFF" fill-opacity="0.000000" fill-rule="evenodd"/>
</svg>
