<svg width="8.000000" height="17.000000" viewBox="0 0 8 17" fill="none" xmlns="http://www.w3.org/2000/svg" xmlns:xlink="http://www.w3.org/1999/xlink">
	<desc>
			Created with Pixso.
	</desc>
	<defs/>
	<path id="Vector" d="M-0.1 16.66C-0.29 16.66 -0.48 16.59 -0.63 16.44C-0.92 16.15 -0.92 15.67 -0.63 15.38L5.89 8.86C6.37 8.38 6.37 7.6 5.89 7.12L-0.63 0.6C-0.92 0.31 -0.92 -0.17 -0.63 -0.46C-0.34 -0.75 0.14 -0.75 0.43 -0.46L6.95 6.06C7.46 6.57 7.75 7.26 7.75 8C7.75 8.72 7.47 9.41 6.95 9.92L0.43 16.44C0.28 16.58 0.09 16.66 -0.1 16.66Z" fill="#FFFFFF" fill-opacity="1.000000" fill-rule="nonzero"/>
</svg>
