<svg width="14.333328" height="14.340088" viewBox="0 0 14.3333 14.3401" fill="none" xmlns="http://www.w3.org/2000/svg" xmlns:xlink="http://www.w3.org/1999/xlink">
	<desc>
			Created with Pixso.
	</desc>
	<defs/>
	<path id="Vector" d="M7.16667 14.3401C3.21333 14.3401 0 11.1267 0 7.17334C0 5.91992 0.32666 4.68677 0.953323 3.6001C1.09332 3.36011 1.39334 3.28003 1.63335 3.41333L7.41333 6.7334C7.65334 6.87329 7.73332 7.17334 7.59999 7.41333C7.45999 7.65332 7.16 7.7334 6.92 7.6001L1.58667 4.54004C1.2 5.36011 1 6.25342 1 7.16675C1 10.5667 3.76666 13.3333 7.16667 13.3333C10.5667 13.3333 13.3333 10.5667 13.3333 7.16675C13.3333 3.7666 10.5667 1 7.16667 1C5.82001 1 4.54001 1.42676 3.46667 2.2334C3.24667 2.3999 2.93333 2.35327 2.76666 2.1333C2.59999 1.91333 2.64665 1.6001 2.86665 1.43335C4.11333 0.5 5.60001 0 7.16667 0C11.12 0 14.3333 3.21338 14.3333 7.16675C14.3333 11.1201 11.12 14.3401 7.16667 14.3401Z" fill="#FFFFFF" fill-opacity="0.500000" fill-rule="nonzero"/>
</svg>
