<svg width="20.847595" height="20.000000" viewBox="0 0 20.8476 20" fill="none" xmlns="http://www.w3.org/2000/svg" xmlns:xlink="http://www.w3.org/1999/xlink">
	<desc>
			Created with Pixso.
	</desc>
	<defs/>
	<path id="Vector" d="M20.8045 9.21191C19.6365 8.021 13.23 1.50635 12.062 0.560547C11.6373 0.245117 11.1063 0 10.4338 0C9.76135 0 9.23041 0.245117 8.80566 0.560547C7.60223 1.50635 1.2312 8.021 0.027771 9.21191C-0.0430298 9.31689 0.027771 9.49219 0.169373 9.49219L2.93011 9.49219C3.21332 9.49219 3.31946 9.45703 3.49646 9.24707C3.6734 9.03662 4.59369 8.09131 4.59369 8.09131C5.76172 6.86523 8.55792 4.1333 9.58435 3.29248C9.97369 2.97705 10.3984 2.97705 10.3984 2.97705C10.3984 2.97705 10.8586 2.97705 11.2125 3.29248C12.2744 4.16797 15.106 6.86523 16.2386 8.09131C16.2386 8.09131 17.1588 9.07178 17.3358 9.24707C17.5128 9.45703 17.619 9.49219 17.9021 9.49219L20.6629 9.49219C20.8045 9.49219 20.9106 9.31689 20.8045 9.21191ZM0.027771 10.7881C1.1958 11.979 7.60223 18.4937 8.77026 19.4395C9.19501 19.7549 9.72595 20 10.3984 20C11.0709 20 11.6019 19.7549 12.0266 19.4395C13.23 18.4937 19.6011 11.979 20.7691 10.7881C20.8753 10.6831 20.7691 10.5078 20.6275 10.5078L17.8667 10.5078C17.5836 10.5078 17.4774 10.543 17.3004 10.7529C17.1234 10.9634 16.2032 11.9087 16.2032 11.9087C15.0352 13.1348 12.239 15.8667 11.2125 16.7075C10.8232 17.0229 10.3984 17.0229 10.3984 17.0229C10.3984 17.0229 9.93829 17.0229 9.58435 16.7075C8.55792 15.8667 5.72632 13.1348 4.59369 11.9087C4.59369 11.9087 3.6734 10.9282 3.49646 10.7529C3.31946 10.543 3.21332 10.5078 2.93011 10.5078L0.169373 10.5078C0.027771 10.4727 -0.0430298 10.6479 0.027771 10.7881ZM9.65515 12.1543C9.12421 11.6636 8.20398 10.7881 7.85004 10.4028C7.70844 10.2275 7.70844 10.0176 7.70844 10.0176C7.70844 10.0176 7.70844 9.80713 7.85004 9.63232C8.20398 9.24707 9.12421 8.33643 9.65515 7.88086C9.86749 7.6709 9.93829 7.56592 9.93829 7.32031L9.93829 4.62354C9.93829 4.51855 9.79669 4.44824 9.72595 4.55322C8.55792 5.63916 5.93872 8.19629 5.05383 9.17676C4.62909 9.63232 4.66449 10.0527 4.66449 10.0527C4.66449 10.0527 4.62909 10.5078 5.05383 10.9282C5.93872 11.9087 8.55792 14.501 9.72595 15.5518C9.83209 15.6567 9.93829 15.5869 9.93829 15.4468L9.93829 12.7495C9.90289 12.4692 9.86749 12.3643 9.65515 12.1543ZM11.1771 12.1543C11.708 11.6636 12.6283 10.7881 12.9822 10.4028C13.1238 10.2275 13.1238 10.0176 13.1238 10.0176C13.1238 10.0176 13.1238 9.80713 12.9822 9.63232C12.6283 9.24707 11.708 8.33643 11.1771 7.88086C10.9647 7.6709 10.894 7.56592 10.894 7.32031L10.894 4.62354C10.894 4.4834 11.0001 4.44824 11.1063 4.51855C12.2744 5.604 14.8936 8.16113 15.7784 9.14209C16.2032 9.59717 16.1678 10.0176 16.1678 10.0176C16.1678 10.0176 16.2032 10.4727 15.7784 10.8931C14.8936 11.874 12.2744 14.4658 11.1063 15.5166C11.0001 15.6216 10.894 15.5518 10.894 15.4116L10.894 12.7144C10.9294 12.4692 10.9647 12.3643 11.1771 12.1543Z" fill="#FFFFFF" fill-opacity="1.000000" fill-rule="nonzero"/>
</svg>
