<svg width="19" height="20" viewBox="0 0 19 20" fill="none" xmlns="http://www.w3.org/2000/svg">
<g id="vuesax/outline/arrow-right">
<g id="arrow-right">
<path id="Vector" d="M8.69725 16.0218C8.57251 16.0438 8.43966 16.0198 8.32381 15.9387C8.09985 15.7819 8.04428 15.4667 8.2011 15.2428L11.7269 10.2074C11.9865 9.83665 11.8962 9.32455 11.5255 9.06498L6.49009 5.53913C6.26612 5.38231 6.21055 5.06717 6.36738 4.8432C6.5242 4.61924 6.83934 4.56367 7.06331 4.72049L12.0987 8.24633C12.4926 8.52213 12.7629 8.94157 12.8474 9.42084C12.9319 9.90011 12.8279 10.3855 12.5456 10.7806L9.01974 15.816C8.93747 15.9253 8.82199 15.9998 8.69725 16.0218Z" fill="#111215"/>
</g>
</g>
</svg>
