<svg width="33" height="32" viewBox="0 0 33 32" fill="none" xmlns="http://www.w3.org/2000/svg">
<path opacity="0.4" d="M24.4333 10.28L24.2467 10.1733L22.3933 9.10663L18.5667 6.8933C17.3933 6.2133 15.6067 6.2133 14.4333 6.8933L10.6067 9.10663L8.75333 10.1866L8.51333 10.32C6.12667 11.92 5.96667 12.2133 5.96667 14.7866V20.9333C5.96667 23.5066 6.12667 23.8 8.56667 25.44L14.4333 28.8266C15.02 29.1733 15.7533 29.3333 16.5 29.3333C17.2333 29.3333 17.98 29.1733 18.5667 28.8266L24.4867 25.4C26.8733 23.8 27.0333 23.5066 27.0333 20.9333V14.7866C27.0333 12.2133 26.8733 11.92 24.4333 10.28Z" fill="white"/>
<path d="M8.75333 10.1865L10.6067 9.1065L14.26 6.99984L14.4333 6.89317C15.6067 6.21317 17.3933 6.21317 18.5667 6.89317L18.74 6.99984L22.3933 9.1065L24.2467 10.1732V7.31984C24.2467 4.31984 22.5933 2.6665 19.5933 2.6665H13.3933C10.3933 2.6665 8.75333 4.31984 8.75333 7.31984V10.1865Z" fill="white"/>
<path d="M20.2867 17.7865L19.46 18.7999C19.3267 18.9465 19.2333 19.2399 19.2467 19.4399L19.3267 20.7465C19.38 21.5465 18.8067 21.9599 18.06 21.6665L16.8467 21.1865C16.66 21.1199 16.34 21.1199 16.1533 21.1865L14.94 21.6665C14.1933 21.9599 13.62 21.5465 13.6733 20.7465L13.7533 19.4399C13.7667 19.2399 13.6733 18.9465 13.54 18.7999L12.7133 17.7865C12.1933 17.1732 12.42 16.4932 13.1933 16.2932L14.46 15.9732C14.66 15.9199 14.9 15.7332 15.0067 15.5599L15.7133 14.4665C16.1533 13.7865 16.8467 13.7865 17.2867 14.4665L17.9933 15.5599C18.1 15.7332 18.34 15.9199 18.54 15.9732L19.8067 16.2932C20.58 16.4932 20.8067 17.1732 20.2867 17.7865Z" fill="white"/>
</svg>
