<svg width="18" height="18" viewBox="0 0 18 18" fill="none" xmlns="http://www.w3.org/2000/svg">
<path opacity="0.4" d="M12.4231 5.93215L12.3271 5.88378L11.3738 5.39967L9.40521 4.39466C8.80155 4.08583 7.90944 4.13258 7.34137 4.50282L5.48858 5.70811L4.59144 6.29587L4.4751 6.36872C3.32527 7.23008 3.25305 7.38073 3.32039 8.66563L3.48124 11.7348C3.54858 13.0197 3.63614 13.1619 4.89739 13.917L7.91532 15.4545C8.21733 15.6122 8.58768 15.6729 8.9605 15.6534C9.32666 15.6342 9.6953 15.5347 9.97916 15.3463L12.8454 13.4804C13.9953 12.619 14.0675 12.4684 14.0001 11.1835L13.8393 8.11436C13.772 6.82946 13.6844 6.68718 12.4231 5.93215Z" fill="#275DFB"/>
<path d="M4.59144 6.29586L5.48858 5.7081L7.25762 4.56061L7.34137 4.50282C7.90944 4.13258 8.80155 4.08583 9.40521 4.39466L9.49455 4.44338L11.3738 5.39967L12.3271 5.88378L12.2525 4.45906C12.174 2.96112 11.3052 2.17885 9.80723 2.25735L6.71148 2.4196C5.21354 2.4981 4.43793 3.36655 4.51643 4.86449L4.59144 6.29586Z" fill="#275DFB"/>
<path d="M10.5491 9.78888L10.1628 10.3165C10.1001 10.3932 10.0612 10.5421 10.0731 10.6416L10.1472 11.292C10.1948 11.69 9.9193 11.9114 9.53881 11.7845L8.92041 11.5766C8.82546 11.5482 8.66568 11.5565 8.57422 11.5947L7.98094 11.8661C7.6158 12.0321 7.31871 11.8408 7.3244 11.4399L7.33016 10.7854C7.33158 10.6852 7.2773 10.5411 7.20689 10.4714L6.7676 9.98706C6.49191 9.69442 6.5873 9.34896 6.9682 9.22886L7.59229 9.03593C7.69076 9.00407 7.80571 8.90458 7.85443 8.81524L8.17867 8.25083C8.38058 7.89978 8.72677 7.88164 8.96426 8.20966L9.34572 8.73709C9.40352 8.82084 9.52824 8.90777 9.62949 8.92916L10.2703 9.0558C10.6617 9.13543 10.7927 9.46903 10.5491 9.78888Z" fill="#275DFB"/>
</svg>
