<svg width="302" height="28" viewBox="0 0 302 28" fill="none" xmlns="http://www.w3.org/2000/svg">
<path d="M123.637 6.00153H131.089V24.9776H134.203V6.00153H141.352V3.19531H123.637V6.00153Z" fill="white"/>
<path d="M147.492 15.3774H156.376V12.5712H147.492V6.00145H157.575V3.19434H144.379V24.9774H157.895V22.1712H147.492V15.3774Z" fill="white"/>
<path d="M26.5965 0.694336L22.832 27.6543L45.4181 0.694336H26.5965Z" fill="#F14747"/>
<path d="M0.244141 0.694336L22.8303 27.6543L19.0658 0.694336H0.244141Z" fill="#F14747"/>
<path d="M164.212 8.42188C164.212 6.8041 165.922 5.61743 168.074 5.61743C169.808 5.61743 172.123 6.30365 173.922 7.73832V4.19876C172.283 3.20943 169.905 2.77832 168.203 2.77832C164.317 2.77832 160.918 4.99876 160.918 8.31521C160.918 15.1952 171.573 14.5925 171.573 19.5552C171.573 21.277 169.679 22.3614 167.497 22.3614C165.345 22.3614 163.042 21.4094 161.143 19.413V23.2868C162.94 24.7544 165.378 25.3597 167.69 25.3597C171.575 25.3597 174.944 22.7028 174.944 19.4503C174.944 12.1827 164.212 12.6281 164.212 8.42188Z" fill="white"/>
<path d="M181.085 3.19531H177.971V24.9776H191.519V21.87H181.085V3.19531Z" fill="white"/>
<path d="M201.145 16.4389L204.532 7.91443L208.014 16.4389H201.145ZM211.502 24.9776H214.745L205.72 3.19531H203.44L194.543 24.9776H197.754L200.028 19.2522H209.163L211.502 24.9776Z" fill="white"/>
<path d="M249.315 3.19531H246.201V24.9776H259.75V21.87H249.315V3.19531Z" fill="white"/>
<path d="M236.267 22.1646C231.607 22.1646 228.227 18.7557 228.227 14.0589C228.227 9.43841 231.644 5.95397 236.176 5.95397C238.377 5.95397 240.414 6.52819 242.069 7.61264L242.728 8.04553V4.55309L242.528 4.42864C240.882 3.40642 238.615 2.84375 236.146 2.84375C229.727 2.84375 224.887 7.66597 224.887 14.0589C224.887 20.5566 229.622 25.2749 236.146 25.2749C238.802 25.2749 241.3 24.5842 243 23.3771L243.177 23.2518V19.6864L242.489 20.2286C240.905 21.4776 238.694 22.1646 236.267 22.1646Z" fill="white"/>
<path d="M278.12 15.5373C278.12 19.4475 275.561 22.2848 272.034 22.2848C268.54 22.2848 266.005 19.4475 266.005 15.5373V2.97461H262.775V15.4804C262.775 21.3426 266.495 25.2804 272.034 25.2804C277.693 25.2804 281.351 21.4342 281.351 15.4804V2.97461H278.12V15.5373Z" fill="white"/>
<path d="M292.455 11.8146H287.684V6.05016H292.455C294.132 6.05016 296.131 6.55772 296.131 8.97816C296.131 11.3231 294.132 11.8146 292.455 11.8146ZM287.684 14.8306H293.335C295.346 14.8306 297.741 15.4324 297.741 18.3017C297.741 20.5977 296.175 21.8617 293.335 21.8617H287.684V14.8306ZM297.368 12.8528C298.699 11.9461 299.441 10.4235 299.441 8.52572C299.441 5.10083 296.927 2.97461 292.88 2.97461H284.375V24.9381H293.791C298.312 24.9381 301.233 22.4626 301.233 18.6333C301.233 15.8137 299.78 13.6848 297.368 12.8528Z" fill="white"/>
<path d="M63.6442 12.3482L55.7459 3.19531H53.0176V24.9776H56.0671V7.97842L63.6442 16.75L71.2218 7.97842V24.9776H74.2713V3.19531H71.5432L63.6442 12.3482Z" fill="white"/>
<path d="M80.6063 8.42188C80.6063 6.8041 82.3163 5.61743 84.4686 5.61743C86.2014 5.61743 88.5168 6.30365 90.3154 7.73832V4.19876C88.6778 3.20943 86.2981 2.77832 84.5961 2.77832C80.7117 2.77832 77.3125 4.99876 77.3125 8.31521C77.3125 15.1952 87.9665 14.5925 87.9665 19.5552C87.9665 21.277 86.0739 22.3614 83.8894 22.3614C81.7398 22.3614 79.4366 21.4094 77.5373 19.413V23.2868C79.3346 24.7544 81.7714 25.3597 84.0827 25.3597C87.9671 25.3597 91.3388 22.7028 91.3388 19.4503C91.3388 12.1827 80.6063 12.6281 80.6063 8.42188Z" fill="white"/>
<path d="M105.762 22.1647C101.102 22.1647 97.7217 18.7558 97.7217 14.059C97.7217 9.4385 101.139 5.95317 105.671 5.95317C107.872 5.95317 109.909 6.52739 111.563 7.61272L112.221 8.04562V4.55317L112.022 4.42873C110.377 3.4065 108.111 2.84473 105.641 2.84473C99.2223 2.84473 94.3809 7.66606 94.3809 14.059C94.3809 20.5567 99.1176 25.275 105.641 25.275C108.296 25.275 110.795 24.5843 112.495 23.3772L112.673 23.2518V19.6865L111.984 20.2287C110.399 21.4776 108.189 22.1647 105.762 22.1647Z" fill="white"/>
</svg>
