<svg width="16.000000" height="16.000000" viewBox="0 0 16 16" fill="none" xmlns="http://www.w3.org/2000/svg" xmlns:xlink="http://www.w3.org/1999/xlink">
	<desc>
			Created with Pixso.
	</desc>
	<defs>
		<clipPath id="clip48_11364">
			<rect id="UI icon/check_all/filled" width="16.000000" height="16.000000" fill="white" fill-opacity="0"/>
		</clipPath>
	</defs>
	<rect id="UI icon/check_all/filled" width="16.000000" height="16.000000" fill="#FFFFFF" fill-opacity="0"/>
	<g clip-path="url(#clip48_11364)">
		<path id="Subtract" d="M11.1387 5.80505L8.43863 8.50513C8.17828 8.7655 7.75616 8.7655 7.49582 8.50513C7.23547 8.24487 7.23547 7.82275 7.49582 7.56238L10.1959 4.8623C10.4563 4.60193 10.8784 4.60193 11.1387 4.8623C11.3991 5.12256 11.3991 5.54468 11.1387 5.80505ZM4.20407 9.92749L5.02982 10.7532C5.2738 10.9972 5.19522 11.408 4.85159 11.4396C4.28021 11.4922 3.69055 11.2997 3.25311 10.8623L1.52924 9.13843C1.26889 8.87805 1.26889 8.45593 1.52924 8.19556C1.78958 7.93518 2.2117 7.93518 2.47205 8.19556L4.19592 9.91943C4.19861 9.92212 4.20132 9.9248 4.20407 9.92749Z" fill="#59CF3C" fill-opacity="1.000000" fill-rule="evenodd"/>
		<path id="Vector 410 (Stroke)" d="M14.4709 4.82812C14.7312 5.08838 14.7312 5.5105 14.4709 5.77087L9.38037 10.8615C8.5993 11.6425 7.33298 11.6425 6.55194 10.8615L4.82806 9.13757C4.56772 8.8772 4.56772 8.45508 4.82806 8.1947C5.08841 7.93433 5.51053 7.93433 5.77087 8.1947L7.49475 9.91858C7.7551 10.179 8.17719 10.179 8.43756 9.91858L13.5281 4.82812C13.7884 4.56775 14.2105 4.56775 14.4709 4.82812Z" fill="#59CF3C" fill-opacity="1.000000" fill-rule="evenodd"/>
	</g>
</svg>
