<svg width="16.000000" height="16.000000" viewBox="0 0 16 16" fill="none" xmlns="http://www.w3.org/2000/svg" xmlns:xlink="http://www.w3.org/1999/xlink">
	<desc>
			Created with Pixso.
	</desc>
	<defs>
		<clipPath id="clip48_4273">
			<rect id="UI icon/check_all/filled" width="16.000000" height="16.000000" fill="white" fill-opacity="0"/>
		</clipPath>
	</defs>
	<rect id="UI icon/check_all/filled" width="16.000000" height="16.000000" fill="#FFFFFF" fill-opacity="0"/>
	<g clip-path="url(#clip48_4273)">
		<path id="Subtract" d="M11.1387 5.80518L8.43863 8.50537C8.17828 8.76562 7.75616 8.76562 7.49582 8.50537C7.23547 8.24463 7.23547 7.82275 7.49582 7.5625L10.1959 4.8623C10.4563 4.60205 10.8784 4.60205 11.1387 4.8623C11.3991 5.12256 11.3991 5.54492 11.1387 5.80518ZM4.20407 9.92725L5.02982 10.7534C5.2738 10.9971 5.19522 11.4082 4.85159 11.4395C4.28021 11.4922 3.69055 11.2998 3.25311 10.8623L1.52924 9.13818C1.26889 8.87793 1.26889 8.45605 1.52924 8.1958C1.78958 7.93506 2.2117 7.93506 2.47205 8.1958L4.19592 9.91943C4.19861 9.92236 4.20132 9.9248 4.20407 9.92725Z" fill="#275DFB" fill-opacity="1.000000" fill-rule="evenodd"/>
		<path id="Vector 410 (Stroke)" d="M14.4709 4.82861C14.7312 5.08887 14.7312 5.51123 14.4709 5.77148L9.38037 10.8618C8.5993 11.6431 7.33298 11.6431 6.55194 10.8618L4.82806 9.13818C4.56772 8.87744 4.56772 8.45557 4.82806 8.19531C5.08841 7.93506 5.51053 7.93506 5.77087 8.19531L7.49475 9.91895C7.7551 10.1792 8.17719 10.1792 8.43756 9.91895L13.5281 4.82861C13.7884 4.56836 14.2105 4.56836 14.4709 4.82861Z" fill="#275DFB" fill-opacity="1.000000" fill-rule="evenodd"/>
	</g>
</svg>
