<svg width="16" height="16" viewBox="0 0 16 16" fill="none" xmlns="http://www.w3.org/2000/svg">
<g id="SmallFireIcon">
<path id="Vector" d="M13.1247 6.91716C12.8158 6.2139 12.3669 5.5827 11.8058 5.06304L11.3429 4.6333C11.3272 4.61911 11.3082 4.60904 11.2878 4.60398C11.2673 4.59891 11.2459 4.599 11.2255 4.60425C11.2051 4.60949 11.1863 4.61973 11.1707 4.63405C11.1551 4.64838 11.1432 4.66636 11.1361 4.68642L10.9292 5.28675C10.8004 5.66337 10.5633 6.04804 10.2277 6.42627C10.2054 6.45041 10.1799 6.45685 10.1624 6.45846C10.1449 6.46006 10.1179 6.45685 10.094 6.43431C10.0717 6.415 10.0606 6.38603 10.0622 6.35706C10.1211 5.38815 9.8347 4.29531 9.20788 3.10591C8.68925 2.11769 7.96857 1.34675 7.06811 0.809179L6.41107 0.418076C6.32516 0.366572 6.21539 0.434171 6.22016 0.535568L6.25516 1.30812C6.27902 1.83603 6.21857 2.30278 6.07539 2.69066C5.90039 3.16546 5.64902 3.60646 5.32766 4.00239C5.10401 4.27755 4.85053 4.52643 4.57198 4.74436C3.9011 5.2661 3.35559 5.93462 2.9763 6.69988C2.59794 7.47181 2.40085 8.32168 2.40039 9.1833C2.40039 9.94298 2.54834 10.6785 2.84107 11.3722C3.12372 12.0401 3.53162 12.6462 4.04221 13.1571C4.55766 13.6721 5.15584 14.0777 5.82243 14.3594C6.51289 14.6523 7.2447 14.8004 8.00038 14.8004C8.75607 14.8004 9.48788 14.6523 10.1783 14.361C10.8433 14.081 11.448 13.6726 11.9586 13.1587C12.474 12.6437 12.8781 12.0417 13.1597 11.3738C13.452 10.682 13.6019 9.93725 13.6004 9.18491C13.6004 8.39949 13.4413 7.63659 13.1247 6.91716Z" fill="#F14747"/>
</g>
</svg>
