<svg width="16.000000" height="16.000000" viewBox="0 0 16 16" fill="none" xmlns="http://www.w3.org/2000/svg" xmlns:xlink="http://www.w3.org/1999/xlink">
	<desc>
			Created with Pixso.
	</desc>
	<defs/>
	<path d="M5.99335 14.3331C4.88669 14.3331 3.77335 13.9131 2.9267 13.0664C1.24002 11.373 1.24002 8.62646 2.9267 6.9397C3.12003 6.74646 3.44 6.74646 3.63336 6.9397C3.82669 7.13306 3.82669 7.45312 3.63336 7.64636C2.33334 8.94641 2.33334 11.0598 3.63336 12.3597C4.93335 13.6598 7.04669 13.6598 8.34668 12.3597C8.97336 11.733 9.32001 10.8931 9.32001 9.99976C9.32001 9.11304 8.97336 8.27307 8.34668 7.63977C8.15335 7.44641 8.15335 7.12646 8.34668 6.93311C8.54001 6.73975 8.86002 6.73975 9.05334 6.93311C9.87335 7.75305 10.32 8.83972 10.32 9.99976C10.32 11.1598 9.86667 12.2465 9.05334 13.0664C8.21335 13.9131 7.10669 14.3331 5.99335 14.3331Z" fill="#7F8393" fill-opacity="1.000000" fill-rule="nonzero"/>
	<path d="M12.7133 9.43982C12.5867 9.43982 12.46 9.39319 12.36 9.29321C12.1667 9.09985 12.1667 8.77979 12.36 8.58655C13.7267 7.21985 13.7267 4.99988 12.36 3.63977C10.9933 2.27319 8.77332 2.27319 7.41333 3.63977C6.75333 4.2998 6.38666 5.17981 6.38666 6.11316C6.38666 7.04651 6.75333 7.92651 7.41333 8.58655C7.60666 8.77979 7.60666 9.09985 7.41333 9.29321C7.22 9.48645 6.89999 9.48645 6.70667 9.29321C5.85999 8.44653 5.38666 7.31311 5.38666 6.11316C5.38666 4.91321 5.85333 3.77979 6.70667 2.93311C8.45999 1.17981 11.3133 1.17981 13.0733 2.93311C14.8267 4.68652 14.8267 7.54651 13.0733 9.2998C12.9733 9.39319 12.84 9.43982 12.7133 9.43982Z" fill="#7F8393" fill-opacity="1.000000" fill-rule="nonzero"/>
	<g opacity="0.000000"/>
</svg>
