<svg width="21" height="20" viewBox="0 0 21 20" fill="none" xmlns="http://www.w3.org/2000/svg">
<path d="M10.5 13.1253C7.05 13.1253 4.25 10.417 4.25 7.08366C4.25 3.75033 7.05 1.04199 10.5 1.04199C13.95 1.04199 16.75 3.75033 16.75 7.08366C16.75 10.417 13.95 13.1253 10.5 13.1253ZM10.5 2.29199C7.74167 2.29199 5.5 4.44199 5.5 7.08366C5.5 9.72533 7.74167 11.8753 10.5 11.8753C13.2583 11.8753 15.5 9.72533 15.5 7.08366C15.5 4.44199 13.2583 2.29199 10.5 2.29199Z" fill="white"/>
<path d="M13.5167 18.9584C13.2834 18.9584 13.05 18.9001 12.8084 18.7917L10.5667 17.7334C10.5417 17.7251 10.45 17.7251 10.4167 17.7334L8.19172 18.7834C7.70005 19.0168 7.18339 19.0084 6.78339 18.7501C6.36672 18.4834 6.12505 17.9918 6.13339 17.4084L6.1417 11.2584C6.1417 10.9168 6.40837 10.6168 6.7667 10.6334C7.10837 10.6334 7.3917 10.9168 7.3917 11.2584L7.38339 17.4084C7.38339 17.5918 7.43338 17.6834 7.45838 17.6918C7.47505 17.7001 7.55005 17.7084 7.66672 17.6501L9.90004 16.5917C10.2584 16.4251 10.7501 16.4251 11.1084 16.5917L13.3501 17.6501C13.4667 17.7084 13.5417 17.7001 13.5584 17.6918C13.5834 17.6751 13.6334 17.5834 13.6334 17.4084V11.1084C13.6334 10.7667 13.9167 10.4834 14.2584 10.4834C14.6001 10.4834 14.8834 10.7667 14.8834 11.1084V17.4084C14.8834 18.0001 14.6417 18.4834 14.225 18.7501C14.0084 18.8917 13.7667 18.9584 13.5167 18.9584Z" fill="white"/>
</svg>
