<svg width="64.000000" height="64.000000" viewBox="0 0 64 64" fill="none" xmlns="http://www.w3.org/2000/svg" xmlns:xlink="http://www.w3.org/1999/xlink">
	<desc>
			Created with Pixso.
	</desc>
	<defs/>
	<g opacity="0.300000">
		<path id="Vector" d="M57.76 27.8403L55.1467 38.9871C52.9067 48.6138 48.48 52.5071 40.16 51.707C38.8267 51.6003 37.3867 51.3604 35.84 50.9871L31.36 49.9204C20.24 47.2803 16.8 41.7871 19.4133 30.6404L22.0267 19.467C22.56 17.2004 23.2 15.2271 24 13.6003C27.12 7.14697 32.4267 5.41357 41.3333 7.52026L45.7867 8.5603C56.96 11.1736 60.3733 16.6936 57.76 27.8403Z" fill="#FFFFFF" fill-opacity="1.000000" fill-rule="nonzero"/>
	</g>
	<path id="Vector" d="M40.16 51.7063C38.5067 52.8262 36.4267 53.7595 33.8933 54.5862L29.68 55.9729C19.0933 59.3862 13.52 56.533 10.08 45.9463L6.66666 35.4128C3.25333 24.8262 6.07999 19.2263 16.6667 15.813L20.88 14.4263C21.9733 14.0796 23.0133 13.7864 24 13.5996C23.2 15.2263 22.56 17.1997 22.0267 19.4663L19.4133 30.6396C16.8 41.7864 20.24 47.2795 31.36 49.9197L35.84 50.9863C37.3867 51.3596 38.8267 51.5996 40.16 51.7063Z" fill="#FFFFFF" fill-opacity="1.000000" fill-rule="nonzero"/>
	<g opacity="0.000000"/>
</svg>
