<svg width="12.000000" height="12.000000" viewBox="0 0 12 12" fill="none" xmlns="http://www.w3.org/2000/svg" xmlns:xlink="http://www.w3.org/1999/xlink">
	<desc>
			Created with Pixso.
	</desc>
	<defs/>
	<g opacity="0.000000"/>
	<path id="Vector" d="M7.955 6.18475L10.3 6.18475C10.26 8.51971 9.8 8.90472 8.36501 9.7547C8.20001 9.85474 8.145 10.0647 8.24501 10.2347C8.345 10.3997 8.55501 10.4547 8.72501 10.3547C10.415 9.35474 11.005 8.74475 11.005 5.83472L11.005 3.13971C11.005 2.28473 10.31 1.59473 9.46001 1.59473L7.96001 1.59473C7.08 1.59473 6.41501 2.2597 6.41501 3.13971L6.41501 4.63971C6.41 5.51971 7.07501 6.18475 7.955 6.18475Z" fill="#FA3434" fill-opacity="1.000000" fill-rule="nonzero"/>
	<path id="Vector" d="M2.545 6.18475L4.89 6.18475C4.85001 8.51971 4.39 8.90472 2.955 9.7547C2.78999 9.85474 2.735 10.0647 2.83501 10.2347C2.935 10.3997 3.145 10.4547 3.315 10.3547C5.005 9.35474 5.595 8.74475 5.595 5.83472L5.595 3.13971C5.595 2.28473 4.89999 1.59473 4.05 1.59473L2.55 1.59473C1.66499 1.59473 1 2.2597 1 3.13971L1 4.63971C1 5.51971 1.66499 6.18475 2.545 6.18475Z" fill="#FA3434" fill-opacity="1.000000" fill-rule="nonzero"/>
</svg>
