<svg width="12.000000" height="12.000000" viewBox="0 0 12 12" fill="none" xmlns="http://www.w3.org/2000/svg" xmlns:xlink="http://www.w3.org/1999/xlink">
	<desc>
			Created with Pixso.
	</desc>
	<defs/>
	<rect id="vuesax/bold/timer" width="12.000000" height="12.000000" fill="#FFFFFF" fill-opacity="0"/>
	<path id="Vector" d="M6 2.3252C3.61 2.3252 1.66499 4.27014 1.66499 6.66016C1.66499 9.05017 3.61 11.0002 6 11.0002C8.39 11.0002 10.335 9.05518 10.335 6.66516C10.335 4.27515 8.39 2.3252 6 2.3252ZM6.375 6.50024C6.375 6.7052 6.20499 6.87524 6 6.87524C5.795 6.87524 5.625 6.7052 5.625 6.50024L5.625 4.00024C5.625 3.79517 5.795 3.62524 6 3.62524C6.20499 3.62524 6.375 3.79517 6.375 4.00024L6.375 6.50024Z" fill="#275DFB" fill-opacity="1.000000" fill-rule="nonzero"/>
	<path id="Vector" d="M7.44501 1.72498L4.55501 1.72498C4.35501 1.72498 4.19501 1.56494 4.19501 1.36499C4.19501 1.16504 4.35501 1 4.55501 1L7.44501 1C7.645 1 7.80501 1.16003 7.80501 1.35999C7.80501 1.56006 7.645 1.72498 7.44501 1.72498Z" fill="#275DFB" fill-opacity="1.000000" fill-rule="nonzero"/>
	<g opacity="0.000000"/>
</svg>
