<svg width="22.000000" height="25.000000" viewBox="0 0 22 25" fill="none" xmlns="http://www.w3.org/2000/svg" xmlns:xlink="http://www.w3.org/1999/xlink">
	<desc>
			Created with Pixso.
	</desc>
	<defs/>
	<path id="Vector" d="M0 10.8335C0 4.8501 4.92487 0 11 0C17.0751 0 22 4.8501 22 10.8335L22 21.6665C22 23.5078 20.4846 25 18.6154 25L3.38461 25C1.51535 25 0 23.5078 0 21.6665L0 10.8335Z" fill="#F14747" fill-opacity="1.000000" fill-rule="nonzero"/>
	<path id="Vector" d="M9.02927 4.7959C9.63998 4.46094 12.263 3.94238 14.0196 3.62158C14.5671 3.52148 14.9231 4.14795 14.5498 4.55518C13.3624 5.84961 11.5628 7.75391 10.9537 8.08789C10.0155 8.60303 8.82407 8.28369 8.29269 7.37451C7.76132 6.46533 8.09094 5.31104 9.02927 4.7959Z" fill="#FFFFFF" fill-opacity="1.000000" fill-rule="nonzero"/>
</svg>
