<svg width="16.000000" height="16.000000" viewBox="0 0 16 16" fill="none" xmlns="http://www.w3.org/2000/svg" xmlns:xlink="http://www.w3.org/1999/xlink">
	<desc>
			Created with Pixso.
	</desc>
	<defs/>
	<path id="Vector" d="M8.00012 15.1667C7.55347 15.1667 7.10013 15.0533 6.7001 14.8201L2.74011 12.5334C1.94012 12.0668 1.44012 11.2067 1.44012 10.28L1.44012 5.72009C1.44012 4.79346 1.94012 3.93335 2.74011 3.4668L6.7001 1.18005C7.50012 0.713379 8.49347 0.713379 9.30014 1.18005L13.2601 3.4668C14.0601 3.93335 14.5601 4.79346 14.5601 5.72009L14.5601 10.28C14.5601 11.2067 14.0601 12.0668 13.2601 12.5334L9.30014 14.8201C8.90012 15.0533 8.44678 15.1667 8.00012 15.1667ZM8.00012 1.83337C7.72678 1.83337 7.44678 1.90674 7.2001 2.04675L3.24011 4.33337C2.74677 4.62012 2.44012 5.14673 2.44012 5.72009L2.44012 10.28C2.44012 10.8467 2.74677 11.38 3.24011 11.6667L7.2001 13.9534C7.69345 14.2401 8.30679 14.2401 8.80014 13.9534L12.7601 11.6667C13.2535 11.38 13.5601 10.8534 13.5601 10.28L13.5601 5.72009C13.5601 5.15344 13.2535 4.62012 12.7601 4.33337L8.80014 2.04675C8.55347 1.90674 8.27347 1.83337 8.00012 1.83337Z" fill="#7F8393" fill-opacity="1.000000" fill-rule="nonzero"/>
	<path id="Vector" d="M7.39346 10.4469C7.15347 10.4469 6.92679 10.3868 6.72012 10.2736C6.26013 10.0068 5.99347 9.46692 5.99347 8.79358L5.99347 7.19348C5.99347 6.52014 6.26013 5.98022 6.72012 5.7135C7.18015 5.4469 7.78015 5.48682 8.36014 5.8269L9.7468 6.62683C10.3268 6.96021 10.6668 7.46021 10.6668 7.99353C10.6668 8.52686 10.3335 9.02014 9.7468 9.36023L8.36014 10.1602C8.04016 10.3535 7.70682 10.4469 7.39346 10.4469ZM7.40015 6.54688C7.33347 6.54688 7.27347 6.56018 7.22681 6.58691C7.08679 6.66687 7.00015 6.89355 7.00015 7.2002L7.00015 8.80017C7.00015 9.10022 7.08679 9.3269 7.22681 9.41357C7.36682 9.49353 7.60681 9.45349 7.86679 9.30017L9.25348 8.50024C9.51349 8.3468 9.66681 8.16016 9.66681 8.00024C9.66681 7.84021 9.51349 7.65356 9.25348 7.50024L7.86679 6.7002C7.69348 6.60022 7.52682 6.54688 7.40015 6.54688Z" fill="#7F8393" fill-opacity="1.000000" fill-rule="nonzero"/>
	<g opacity="0.000000"/>
</svg>
